<svg width="512" height="512" viewBox="0 0 512 512" fill="none" xmlns="http://www.w3.org/2000/svg">
<path d="M27.2801 226.56C27.8368 228.216 28.9201 229.644 30.3646 230.626C31.8092 231.609 33.5356 232.091 35.2801 232C36.0985 232.023 36.9136 231.888 37.6801 231.6L314.4 144.48C315.413 144.16 316.352 143.642 317.162 142.955C317.973 142.268 318.638 141.427 319.12 140.48C319.605 139.536 319.896 138.506 319.979 137.448C320.061 136.391 319.932 135.327 319.6 134.32L309.52 104C307.407 98.0233 303.058 93.0994 297.388 90.2644C291.718 87.4294 285.169 86.9044 279.12 88.8L152 129.12V121.6C152.038 121.067 152.038 120.533 152 120C152 108.64 176 96 208 96C218.609 96 228.783 91.7857 236.284 84.2843C243.786 76.7828 248 66.6087 248 56C248 45.3913 243.786 35.2172 236.284 27.7157C228.783 20.2143 218.609 16 208 16C176.96 16 150.48 44.64 140.4 84.48C132.722 70.9851 121.609 59.7619 108.191 51.9499C94.7729 44.1379 79.5267 40.0151 64.0001 40C53.3915 40 43.2173 44.2143 35.7158 51.7157C28.2144 59.2172 24.0001 69.3913 24.0001 80C24.0001 90.6087 28.2144 100.783 35.7158 108.284C43.2173 115.786 53.3915 120 64.0001 120H72.0001C109.44 120 130.88 129.44 135.2 134.4L32.8001 166.4C29.7468 167.351 26.9142 168.902 24.4688 170.963C22.0234 173.023 20.0145 175.552 18.5601 178.4C17.1378 181.156 16.2845 184.169 16.0508 187.262C15.8172 190.354 16.208 193.462 17.2001 196.4L27.2801 226.56ZM208 32C214.365 32 220.47 34.5286 224.971 39.0294C229.472 43.5303 232 49.6348 232 56C232 62.3652 229.472 68.4697 224.971 72.9706C220.47 77.4714 214.365 80 208 80C189.479 79.4203 171.131 83.7244 154.8 92.48C162.16 57.36 183.28 32 208 32ZM72.0001 104H64.0001C57.6349 104 51.5304 101.471 47.0296 96.9706C42.5287 92.4697 40.0001 86.3652 40.0001 80C40.0001 73.6348 42.5287 67.5303 47.0296 63.0294C51.5304 58.5286 57.6349 56 64.0001 56C80.8802 55.9937 97.226 61.9185 110.182 72.7392C123.137 83.56 131.879 98.5888 134.88 115.2C114.919 107.161 93.5089 103.347 72.0001 104ZM163.28 175.28L153.28 145.44L168.48 140.64L178.56 170.48L163.28 175.28ZM283.92 104.4C284.753 104.156 285.613 104.022 286.48 104C288.225 103.909 289.951 104.391 291.396 105.374C292.84 106.356 293.923 107.784 294.48 109.44L302 131.68L193.76 165.68L184 136L283.92 104.4ZM32.8001 185.76C33.2993 184.82 33.9809 183.989 34.8051 183.316C35.6293 182.643 36.5795 182.141 37.6001 181.84L138 150.24L148 180.08L40.0001 214L32.0001 191.44C31.751 190.487 31.6934 189.495 31.8307 188.52C31.968 187.545 32.2975 186.607 32.8001 185.76ZM384 304H128C125.878 304 123.844 304.843 122.343 306.343C120.843 307.843 120 309.878 120 312V344C120 346.122 120.843 348.157 122.343 349.657C123.844 351.157 125.878 352 128 352C130.122 352 132.157 351.157 133.657 349.657C135.157 348.157 136 346.122 136 344V320H232V480H144C141.878 480 139.844 479.157 138.343 477.657C136.843 476.157 136 474.122 136 472V416C136 413.878 135.157 411.843 133.657 410.343C132.157 408.843 130.122 408 128 408C125.878 408 123.844 408.843 122.343 410.343C120.843 411.843 120 413.878 120 416V472C120 478.365 122.529 484.47 127.03 488.971C131.53 493.471 137.635 496 144 496H368C374.365 496 380.47 493.471 384.971 488.971C389.472 484.47 392 478.365 392 472V312C392 309.878 391.157 307.843 389.657 306.343C388.157 304.843 386.122 304 384 304ZM248 320H264V480H248V320ZM376 472C376 474.122 375.157 476.157 373.657 477.657C372.157 479.157 370.122 480 368 480H280V320H376V472Z" fill="#296A89"/>
<path d="M128 392C130.122 392 132.157 391.157 133.657 389.657C135.157 388.157 136 386.122 136 384V376C136 373.878 135.157 371.843 133.657 370.343C132.157 368.843 130.122 368 128 368C125.878 368 123.844 368.843 122.343 370.343C120.843 371.843 120 373.878 120 376V384C120 386.122 120.843 388.157 122.343 389.657C123.844 391.157 125.878 392 128 392ZM264 192C264 189.878 263.157 187.843 261.657 186.343C260.157 184.843 258.122 184 256 184C253.878 184 251.844 184.843 250.343 186.343C248.843 187.843 248 189.878 248 192V232C248 234.122 248.843 236.157 250.343 237.657C251.844 239.157 253.878 240 256 240C258.122 240 260.157 239.157 261.657 237.657C263.157 236.157 264 234.122 264 232V192ZM146.32 218.32C145.57 219.064 144.975 219.949 144.569 220.923C144.163 221.898 143.954 222.944 143.954 224C143.954 225.056 144.163 226.102 144.569 227.077C144.975 228.051 145.57 228.936 146.32 229.68L202.32 285.68C203.064 286.43 203.949 287.025 204.924 287.431C205.898 287.837 206.944 288.046 208 288.046C209.056 288.046 210.102 287.837 211.077 287.431C212.052 287.025 212.936 286.43 213.68 285.68C214.43 284.936 215.025 284.051 215.431 283.077C215.837 282.102 216.047 281.056 216.047 280C216.047 278.944 215.837 277.898 215.431 276.923C215.025 275.949 214.43 275.064 213.68 274.32L157.68 218.32C156.936 217.57 156.052 216.975 155.077 216.569C154.102 216.163 153.056 215.954 152 215.954C150.944 215.954 149.898 216.163 148.924 216.569C147.949 216.975 147.064 217.57 146.32 218.32ZM298.32 285.68C299.064 286.43 299.949 287.025 300.924 287.431C301.898 287.837 302.944 288.046 304 288.046C305.056 288.046 306.102 287.837 307.077 287.431C308.052 287.025 308.936 286.43 309.68 285.68L365.68 229.68C367.187 228.174 368.033 226.13 368.033 224C368.033 221.87 367.187 219.826 365.68 218.32C364.174 216.814 362.131 215.967 360 215.967C357.87 215.967 355.827 216.814 354.32 218.32L298.32 274.32C297.57 275.064 296.975 275.949 296.569 276.923C296.163 277.898 295.954 278.944 295.954 280C295.954 281.056 296.163 282.102 296.569 283.077C296.975 284.051 297.57 284.936 298.32 285.68ZM256 256C253.878 256 251.844 256.843 250.343 258.343C248.843 259.843 248 261.878 248 264V272C248 274.122 248.843 276.157 250.343 277.657C251.844 279.157 253.878 280 256 280C258.122 280 260.157 279.157 261.657 277.657C263.157 276.157 264 274.122 264 272V264C264 261.878 263.157 259.843 261.657 258.343C260.157 256.843 258.122 256 256 256ZM106.96 280.56L26.9601 248.56C24.9869 247.775 22.7827 247.806 20.8323 248.646C18.8819 249.486 17.3452 251.067 16.5601 253.04C15.7751 255.013 15.806 257.217 16.6462 259.168C17.4864 261.118 19.0669 262.655 21.0401 263.44L101.04 295.44C101.982 295.812 102.987 296.002 104 296C105.864 296.005 107.671 295.358 109.109 294.173C110.547 292.987 111.526 291.337 111.877 289.506C112.228 287.676 111.928 285.78 111.031 284.147C110.133 282.514 108.693 281.245 106.96 280.56ZM495.44 253.04C495.052 252.062 494.475 251.171 493.742 250.416C493.01 249.662 492.135 249.059 491.169 248.643C490.203 248.227 489.165 248.006 488.113 247.991C487.061 247.977 486.017 248.17 485.04 248.56L405.04 280.56C403.307 281.245 401.867 282.514 400.97 284.147C400.072 285.78 399.773 287.676 400.124 289.506C400.475 291.337 401.453 292.987 402.892 294.173C404.33 295.358 406.136 296.005 408 296C409.013 296.002 410.018 295.812 410.96 295.44L490.96 263.44C491.938 263.052 492.829 262.475 493.584 261.742C494.338 261.009 494.941 260.135 495.357 259.169C495.773 258.203 495.994 257.165 496.009 256.113C496.023 255.061 495.83 254.017 495.44 253.04ZM397.68 186.32C396.936 185.57 396.052 184.975 395.077 184.569C394.102 184.163 393.056 183.954 392 183.954C390.944 183.954 389.898 184.163 388.924 184.569C387.949 184.975 387.064 185.57 386.32 186.32L378.32 194.32C377.57 195.064 376.975 195.949 376.569 196.923C376.163 197.898 375.954 198.944 375.954 200C375.954 201.056 376.163 202.102 376.569 203.077C376.975 204.051 377.57 204.936 378.32 205.68C379.064 206.43 379.949 207.025 380.924 207.431C381.898 207.837 382.944 208.046 384 208.046C385.056 208.046 386.102 207.837 387.077 207.431C388.052 207.025 388.936 206.43 389.68 205.68L397.68 197.68C398.43 196.936 399.025 196.051 399.431 195.077C399.837 194.102 400.047 193.056 400.047 192C400.047 190.944 399.837 189.898 399.431 188.923C399.025 187.949 398.43 187.064 397.68 186.32ZM440 416C438.947 416.006 437.904 415.804 436.929 415.406C435.954 415.008 435.068 414.421 434.32 413.68L426.32 405.68C424.814 404.174 423.967 402.13 423.967 400C423.967 397.87 424.814 395.826 426.32 394.32C427.827 392.814 429.87 391.967 432 391.967C434.131 391.967 436.174 392.814 437.68 394.32L445.68 402.32C446.43 403.064 447.025 403.949 447.431 404.923C447.837 405.898 448.047 406.944 448.047 408C448.047 409.056 447.837 410.102 447.431 411.077C447.025 412.051 446.43 412.936 445.68 413.68C444.933 414.421 444.046 415.008 443.071 415.406C442.097 415.804 441.053 416.006 440 416ZM64.0001 344C61.8784 344 59.8436 343.157 58.3433 341.657C56.843 340.157 56.0001 338.122 56.0001 336V328C56.0001 325.878 56.843 323.843 58.3433 322.343C59.8436 320.843 61.8784 320 64.0001 320C66.1219 320 68.1567 320.843 69.657 322.343C71.1573 323.843 72.0001 325.878 72.0001 328V336C72.0001 338.122 71.1573 340.157 69.657 341.657C68.1567 343.157 66.1219 344 64.0001 344ZM48.0001 360H40.0001C37.8784 360 35.8436 359.157 34.3433 357.657C32.843 356.157 32.0001 354.122 32.0001 352C32.0001 349.878 32.843 347.843 34.3433 346.343C35.8436 344.843 37.8784 344 40.0001 344H48.0001C50.1219 344 52.1567 344.843 53.657 346.343C55.1573 347.843 56.0001 349.878 56.0001 352C56.0001 354.122 55.1573 356.157 53.657 357.657C52.1567 359.157 50.1219 360 48.0001 360ZM88.0001 360H80.0001C77.8784 360 75.8436 359.157 74.3433 357.657C72.843 356.157 72.0001 354.122 72.0001 352C72.0001 349.878 72.843 347.843 74.3433 346.343C75.8436 344.843 77.8784 344 80.0001 344H88.0001C90.1218 344 92.1567 344.843 93.657 346.343C95.1573 347.843 96.0001 349.878 96.0001 352C96.0001 354.122 95.1573 356.157 93.657 357.657C92.1567 359.157 90.1218 360 88.0001 360ZM64.0001 384C61.8784 384 59.8436 383.157 58.3433 381.657C56.843 380.157 56.0001 378.122 56.0001 376V368C56.0001 365.878 56.843 363.843 58.3433 362.343C59.8436 360.843 61.8784 360 64.0001 360C66.1219 360 68.1567 360.843 69.657 362.343C71.1573 363.843 72.0001 365.878 72.0001 368V376C72.0001 378.122 71.1573 380.157 69.657 381.657C68.1567 383.157 66.1219 384 64.0001 384ZM368 40C365.878 40 363.844 39.1571 362.343 37.6569C360.843 36.1566 360 34.1217 360 32V24C360 21.8783 360.843 19.8434 362.343 18.3431C363.844 16.8429 365.878 16 368 16C370.122 16 372.157 16.8429 373.657 18.3431C375.157 19.8434 376 21.8783 376 24V32C376 34.1217 375.157 36.1566 373.657 37.6569C372.157 39.1571 370.122 40 368 40ZM352 56H344C341.878 56 339.844 55.1571 338.343 53.6569C336.843 52.1566 336 50.1217 336 48C336 45.8783 336.843 43.8434 338.343 42.3431C339.844 40.8429 341.878 40 344 40H352C354.122 40 356.157 40.8429 357.657 42.3431C359.157 43.8434 360 45.8783 360 48C360 50.1217 359.157 52.1566 357.657 53.6569C356.157 55.1571 354.122 56 352 56ZM392 56H384C381.878 56 379.844 55.1571 378.343 53.6569C376.843 52.1566 376 50.1217 376 48C376 45.8783 376.843 43.8434 378.343 42.3431C379.844 40.8429 381.878 40 384 40H392C394.122 40 396.157 40.8429 397.657 42.3431C399.157 43.8434 400 45.8783 400 48C400 50.1217 399.157 52.1566 397.657 53.6569C396.157 55.1571 394.122 56 392 56ZM368 80C365.878 80 363.844 79.1571 362.343 77.6569C360.843 76.1566 360 74.1217 360 72V64C360 61.8783 360.843 59.8434 362.343 58.3431C363.844 56.8429 365.878 56 368 56C370.122 56 372.157 56.8429 373.657 58.3431C375.157 59.8434 376 61.8783 376 64V72C376 74.1217 375.157 76.1566 373.657 77.6569C372.157 79.1571 370.122 80 368 80ZM445.36 149.36C444.302 149.356 443.255 149.141 442.28 148.729C441.305 148.317 440.421 147.716 439.68 146.96L434.32 141.68C432.814 140.174 431.967 138.13 431.967 136C431.967 133.87 432.814 131.826 434.32 130.32C435.827 128.814 437.87 127.967 440 127.967C442.131 127.967 444.174 128.814 445.68 130.32L450.96 135.68C452.45 137.179 453.286 139.207 453.286 141.32C453.286 143.433 452.45 145.461 450.96 146.96C449.483 148.467 447.47 149.33 445.36 149.36ZM440 176C438.947 176.006 437.904 175.804 436.929 175.406C435.954 175.008 435.068 174.421 434.32 173.68C433.57 172.936 432.975 172.051 432.569 171.077C432.163 170.102 431.954 169.056 431.954 168C431.954 166.944 432.163 165.898 432.569 164.923C432.975 163.949 433.57 163.064 434.32 162.32L439.68 157.04C441.205 155.963 443.058 155.453 444.919 155.598C446.78 155.744 448.532 156.536 449.871 157.836C451.21 159.137 452.051 160.865 452.25 162.722C452.449 164.578 451.993 166.445 450.96 168L445.68 173.36C444.96 174.159 444.085 174.805 443.109 175.259C442.133 175.713 441.076 175.965 440 176ZM466.64 149.36C464.53 149.33 462.517 148.467 461.04 146.96C459.55 145.461 458.714 143.433 458.714 141.32C458.714 139.207 459.55 137.179 461.04 135.68L466.32 130.32C467.066 129.574 467.952 128.982 468.926 128.579C469.901 128.175 470.945 127.967 472 127.967C473.055 127.967 474.1 128.175 475.074 128.579C476.049 128.982 476.934 129.574 477.68 130.32C478.426 131.066 479.018 131.951 479.421 132.926C479.825 133.901 480.033 134.945 480.033 136C480.033 137.055 479.825 138.099 479.421 139.074C479.018 140.049 478.426 140.934 477.68 141.68L472.32 146.96C471.579 147.716 470.696 148.317 469.721 148.729C468.746 149.141 467.699 149.356 466.64 149.36ZM472 176C470.947 176.006 469.904 175.804 468.929 175.406C467.954 175.008 467.068 174.421 466.32 173.68L461.04 168C460.135 166.472 459.764 164.686 459.986 162.923C460.208 161.161 461.011 159.523 462.267 158.267C463.523 157.011 465.161 156.208 466.923 155.986C468.686 155.764 470.472 156.135 472 157.04L477.36 162.32C478.11 163.064 478.705 163.949 479.111 164.923C479.517 165.898 479.727 166.944 479.727 168C479.727 169.056 479.517 170.102 479.111 171.077C478.705 172.051 478.11 172.936 477.36 173.68C475.93 175.101 474.015 175.93 472 176ZM464 368C462.947 368.006 461.904 367.804 460.929 367.406C459.954 367.008 459.068 366.421 458.32 365.68C457.57 364.936 456.975 364.051 456.569 363.077C456.163 362.102 455.954 361.056 455.954 360C455.954 358.944 456.163 357.898 456.569 356.923C456.975 355.949 457.57 355.064 458.32 354.32L466.32 346.32C467.827 344.814 469.87 343.967 472 343.967C474.131 343.967 476.174 344.814 477.68 346.32C479.187 347.826 480.033 349.87 480.033 352C480.033 354.13 479.187 356.174 477.68 357.68L469.68 365.68C468.933 366.421 468.046 367.008 467.071 367.406C466.097 367.804 465.053 368.006 464 368Z" fill="#296A89"/>
</svg>
