<svg width="161" height="162" viewBox="0 0 161 162" fill="none" xmlns="http://www.w3.org/2000/svg">
<path d="M142.225 53.6117L160.004 35.6876C160.264 35.4259 160.459 35.1074 160.574 34.7572C160.689 34.407 160.721 34.0349 160.667 33.6702C160.613 33.3056 160.475 32.9585 160.264 32.6564C160.053 32.3544 159.774 32.1057 159.45 31.93L101.075 0.289993C100.625 0.0462693 100.109 -0.0456659 99.6025 0.0278845C99.0964 0.101435 98.6276 0.336535 98.2659 0.698157L80.345 18.6191L62.4253 0.699423C62.0657 0.335127 61.5971 0.098146 61.0905 0.0244776C60.584 -0.0491909 60.0673 0.0444791 59.6188 0.291259L40.8689 10.4504C40.5948 10.5987 40.3528 10.7997 40.1568 11.0419C39.9607 11.2841 39.8146 11.5627 39.7267 11.8616C39.5463 12.4691 39.6128 13.1114 39.9133 13.6683C40.1176 14.0441 40.4193 14.3579 40.7868 14.5767C41.1543 14.7956 41.5739 14.9114 42.0016 14.9121C42.394 14.9121 42.7863 14.8108 43.1312 14.6241L60.3212 5.3063L76.4165 21.4016L22.2459 50.6812L6.28664 34.5919L34.7847 19.1456C35.0598 18.999 35.3027 18.7989 35.4994 18.5571C35.6961 18.3153 35.8425 18.0367 35.9301 17.7376C36.1105 17.1301 36.044 16.4878 35.7403 15.9309C35.5369 15.555 35.2359 15.2411 34.8688 15.0222C34.5018 14.8033 34.0825 14.6877 33.6551 14.6874C33.2628 14.6874 32.8736 14.7884 32.5256 14.975L1.24312 31.9312C0.918708 32.1066 0.639673 32.3552 0.428202 32.6573C0.216731 32.9594 0.0786567 33.3067 0.024957 33.6715C-0.0275675 34.0359 0.00509576 34.4076 0.120383 34.7573C0.235669 35.107 0.430442 35.4252 0.68941 35.687L18.4673 53.6124L0.688145 71.5361C0.428612 71.7979 0.2336 72.1164 0.118562 72.4666C0.00352419 72.8167 -0.0283779 73.1889 0.025384 73.5535C0.0791459 73.9182 0.217094 74.2653 0.428297 74.5673C0.6395 74.8694 0.918152 75.1181 1.24217 75.2938L19.4396 85.1568V127.98C19.4393 128.062 19.4434 128.144 19.4517 128.225C19.4551 128.259 19.4618 128.293 19.4665 128.327C19.4726 128.368 19.4773 128.41 19.4855 128.451C19.4956 128.502 19.5096 128.552 19.5229 128.603C19.5292 128.626 19.5339 128.649 19.5409 128.672C19.5564 128.723 19.5751 128.773 19.5937 128.823C19.602 128.845 19.6089 128.867 19.6181 128.889C19.6364 128.934 19.6576 128.977 19.6785 129.02C19.6915 129.047 19.7032 129.074 19.7171 129.1C19.7361 129.135 19.7573 129.169 19.7776 129.203C19.7972 129.236 19.8159 129.269 19.8367 129.301C19.8541 129.327 19.8738 129.352 19.8924 129.378C19.9193 129.415 19.9459 129.452 19.975 129.488C19.9911 129.508 20.0092 129.527 20.0259 129.546C20.0595 129.585 20.093 129.623 20.1291 129.66C20.1478 129.678 20.1683 129.695 20.1876 129.714C20.2237 129.748 20.2591 129.782 20.2974 129.814C20.3344 129.844 20.3737 129.872 20.4123 129.9C20.4351 129.917 20.4563 129.935 20.4797 129.951C20.548 129.997 20.6185 130.04 20.691 130.079L79.2056 161.709C79.2898 161.755 79.3777 161.795 79.4679 161.831C79.4875 161.838 79.5075 161.845 79.5274 161.852C79.5932 161.877 79.66 161.898 79.7286 161.916C79.7533 161.923 79.7777 161.93 79.8024 161.935C79.8688 161.951 79.9362 161.963 80.0045 161.973C80.028 161.976 80.0507 161.981 80.0742 161.983C80.1634 161.994 80.2539 162 80.3459 162C80.438 162 80.5285 161.994 80.6177 161.983C80.6412 161.981 80.6643 161.976 80.6877 161.973C80.7806 161.96 80.8726 161.941 80.9633 161.916C81.0316 161.898 81.0987 161.877 81.1642 161.852C81.1841 161.845 81.204 161.838 81.2237 161.831C81.3135 161.795 81.4015 161.755 81.4856 161.709L140 130.079C140.073 130.04 140.143 129.997 140.212 129.951C140.235 129.935 140.257 129.917 140.279 129.9C140.318 129.872 140.357 129.844 140.394 129.814C140.432 129.782 140.468 129.748 140.504 129.714C140.523 129.695 140.544 129.679 140.562 129.66C140.598 129.623 140.632 129.585 140.665 129.546C140.682 129.527 140.7 129.508 140.716 129.488C140.745 129.453 140.772 129.415 140.799 129.378C140.818 129.352 140.837 129.327 140.855 129.301C140.875 129.269 140.894 129.236 140.914 129.203C140.934 129.169 140.955 129.135 140.974 129.1C140.988 129.074 141 129.047 141.013 129.02C141.034 128.977 141.055 128.934 141.073 128.889C141.082 128.867 141.089 128.845 141.098 128.823C141.116 128.773 141.135 128.723 141.15 128.672C141.157 128.649 141.162 128.626 141.168 128.603C141.182 128.552 141.196 128.502 141.206 128.451C141.214 128.41 141.219 128.368 141.225 128.327C141.229 128.293 141.236 128.259 141.24 128.225C141.248 128.144 141.252 128.062 141.252 127.98V85.1568L159.448 75.2941C159.772 75.118 160.051 74.8692 160.262 74.5672C160.473 74.2653 160.612 73.9184 160.666 73.5539C160.719 73.1892 160.687 72.8173 160.572 72.4671C160.457 72.1169 160.263 71.798 160.005 71.5352L142.225 53.6117ZM100.37 5.30661L154.405 34.5935L138.446 50.6821L84.2757 21.4006L100.37 5.30661ZM22.9331 81.6523L6.28759 72.6303L22.2465 56.5416L76.4168 85.8232L60.3225 101.917L22.9533 81.663C22.9467 81.6593 22.9399 81.6557 22.9331 81.6523ZM77.9732 155.647L24.1854 126.572V87.7292L59.6179 106.934C60.0675 107.177 60.5838 107.269 61.09 107.196C61.5961 107.122 62.0649 106.887 62.4266 106.526L77.9732 90.979V155.647ZM80.3463 82.5521L26.8081 53.6124L80.3475 24.6723L133.886 53.612L80.3463 82.5521ZM137.769 81.6475C137.756 81.6542 137.743 81.6611 137.73 81.6681L125.908 88.0763C125.633 88.2235 125.39 88.4242 125.193 88.6665C124.996 88.9088 124.85 89.1879 124.762 89.4874C124.673 89.7861 124.643 90.0995 124.675 90.4096C124.707 90.7197 124.8 91.0204 124.949 91.2944C125.25 91.847 125.757 92.2579 126.361 92.437C126.964 92.6161 127.613 92.5488 128.167 92.25L136.507 87.7295V126.573L82.7193 155.647V90.9777L98.2672 106.526C98.4868 106.747 98.7481 106.922 99.0359 107.042C99.3238 107.161 99.6325 107.222 99.9441 107.222C100.336 107.222 100.726 107.12 101.074 106.934L119.824 96.7711C120.098 96.6233 120.34 96.4224 120.536 96.1801C120.732 95.9379 120.878 95.6591 120.966 95.3599C121.146 94.7524 121.08 94.1133 120.779 93.5564C120.575 93.1799 120.273 92.8655 119.905 92.6466C119.537 92.4277 119.116 92.3124 118.688 92.313C118.299 92.313 117.906 92.411 117.561 92.6009L100.371 101.915L84.276 85.8235L138.447 56.5404L154.406 72.6296L137.769 81.6475Z" fill="#296A89"/>
</svg>
