<svg width="121" height="121" viewBox="0 0 121 121" fill="none" xmlns="http://www.w3.org/2000/svg">
<path fill-rule="evenodd" clip-rule="evenodd" d="M12.0527 4.72656C12.0527 2.11612 14.1689 0 16.7793 0H71.1348C72.44 0 73.498 1.05808 73.498 2.36328C73.498 3.66849 72.44 4.72656 71.1348 4.72656H16.7793V116.273H104.221V4.72656H90.041C88.7358 4.72656 87.6777 3.66849 87.6777 2.36328C87.6777 1.05808 88.7358 0 90.041 0H104.221C106.831 0 108.947 2.11612 108.947 4.72656V116.273C108.947 118.884 106.831 121 104.221 121H16.7793C14.1689 121 12.0527 118.884 12.0527 116.273V4.72656Z" fill="#296A89"/>
<path fill-rule="evenodd" clip-rule="evenodd" d="M28.5957 21.5059V28.5957H35.6855V21.5059H28.5957ZM24.9074 17.8176C25.5722 17.1528 26.4739 16.7793 27.4141 16.7793H36.8672C37.8074 16.7793 38.709 17.1528 39.3738 17.8176C40.0386 18.4824 40.4121 19.3841 40.4121 20.3242V29.7773C40.4121 30.7175 40.0386 31.6192 39.3738 32.284C38.709 32.9488 37.8074 33.3223 36.8672 33.3223H27.4141C26.4739 33.3223 25.5722 32.9488 24.9074 32.284C24.2426 31.6192 23.8691 30.7175 23.8691 29.7773V20.3242C23.8691 19.3841 24.2426 18.4824 24.9074 17.8176ZM45.1387 20.3242C45.1387 19.019 46.1967 17.9609 47.502 17.9609H71.1348C72.44 17.9609 73.498 19.019 73.498 20.3242C73.498 21.6294 72.44 22.6875 71.1348 22.6875H47.502C46.1967 22.6875 45.1387 21.6294 45.1387 20.3242ZM45.1387 29.7773C45.1387 28.4721 46.1967 27.4141 47.502 27.4141H94.7676C96.0728 27.4141 97.1309 28.4721 97.1309 29.7773C97.1309 31.0825 96.0728 32.1406 94.7676 32.1406H47.502C46.1967 32.1406 45.1387 31.0825 45.1387 29.7773ZM28.5957 45.1387V52.2285H35.6855V45.1387H28.5957ZM24.9074 41.4504C25.5722 40.7856 26.4739 40.4121 27.4141 40.4121H36.8672C37.8074 40.4121 38.709 40.7856 39.3738 41.4504C40.0386 42.1152 40.4121 43.0169 40.4121 43.957V53.4102C40.4121 54.3503 40.0386 55.252 39.3738 55.9168C38.709 56.5816 37.8074 56.9551 36.8672 56.9551H27.4141C26.4739 56.9551 25.5722 56.5816 24.9074 55.9168C24.2426 55.252 23.8691 54.3503 23.8691 53.4102V43.957C23.8691 43.0169 24.2426 42.1152 24.9074 41.4504ZM45.1387 43.957C45.1387 42.6518 46.1967 41.5938 47.502 41.5938H71.1348C72.44 41.5938 73.498 42.6518 73.498 43.957C73.498 45.2622 72.44 46.3203 71.1348 46.3203H47.502C46.1967 46.3203 45.1387 45.2622 45.1387 43.957ZM45.1387 53.4102C45.1387 52.105 46.1967 51.0469 47.502 51.0469H94.7676C96.0728 51.0469 97.1309 52.105 97.1309 53.4102C97.1309 54.7154 96.0728 55.7734 94.7676 55.7734H47.502C46.1967 55.7734 45.1387 54.7154 45.1387 53.4102ZM28.5957 68.7715V75.8613H35.6855V68.7715H28.5957ZM24.9074 65.0832C25.5722 64.4184 26.4739 64.0449 27.4141 64.0449H36.8672C37.8074 64.0449 38.709 64.4184 39.3738 65.0832C40.0386 65.748 40.4121 66.6497 40.4121 67.5898V77.043C40.4121 77.9831 40.0386 78.8848 39.3738 79.5496C38.709 80.2144 37.8074 80.5879 36.8672 80.5879H27.4141C26.4739 80.5879 25.5722 80.2144 24.9074 79.5496C24.2426 78.8848 23.8691 77.9831 23.8691 77.043V67.5898C23.8691 66.6497 24.2426 65.748 24.9074 65.0832ZM45.1387 67.5898C45.1387 66.2846 46.1967 65.2266 47.502 65.2266H71.1348C72.44 65.2266 73.498 66.2846 73.498 67.5898C73.498 68.895 72.44 69.9531 71.1348 69.9531H47.502C46.1967 69.9531 45.1387 68.895 45.1387 67.5898ZM45.1387 77.043C45.1387 75.7378 46.1967 74.6797 47.502 74.6797H94.7676C96.0728 74.6797 97.1309 75.7378 97.1309 77.043C97.1309 78.3482 96.0728 79.4062 94.7676 79.4062H47.502C46.1967 79.4062 45.1387 78.3482 45.1387 77.043ZM28.5957 92.4043V99.4941H35.6855V92.4043H28.5957ZM24.9074 88.716C25.5722 88.0512 26.4739 87.6777 27.4141 87.6777H36.8672C37.8074 87.6777 38.709 88.0512 39.3738 88.716C40.0386 89.3808 40.4121 90.2825 40.4121 91.2227V100.676C40.4121 101.616 40.0386 102.518 39.3738 103.182C38.709 103.847 37.8074 104.221 36.8672 104.221H27.4141C26.4739 104.221 25.5722 103.847 24.9074 103.182C24.2426 102.518 23.8691 101.616 23.8691 100.676V91.2227C23.8691 90.2825 24.2426 89.3808 24.9074 88.716ZM45.1387 91.2227C45.1387 89.9174 46.1967 88.8594 47.502 88.8594H71.1348C72.44 88.8594 73.498 89.9174 73.498 91.2227C73.498 92.5279 72.44 93.5859 71.1348 93.5859H47.502C46.1967 93.5859 45.1387 92.5279 45.1387 91.2227ZM45.1387 100.676C45.1387 99.3706 46.1967 98.3125 47.502 98.3125H94.7676C96.0728 98.3125 97.1309 99.3706 97.1309 100.676C97.1309 101.981 96.0728 103.039 94.7676 103.039H47.502C46.1967 103.039 45.1387 101.981 45.1387 100.676Z" fill="#296A89"/>
</svg>
