<svg width="48" height="48" viewBox="0 0 48 48" fill="none" xmlns="http://www.w3.org/2000/svg">
<g clip-path="url(#clip0_285_4315)">
<rect width="48" height="48" rx="4" fill="#F89C1F"/>
<path d="M46.9492 9.17607C46.9492 9.26941 46.9306 9.51207 46.8932 9.90407C46.8746 10.2961 46.8652 10.7814 46.8652 11.3601C46.8652 11.8827 46.8932 12.5921 46.9492 13.4881C46.9492 13.9921 46.6226 14.2441 45.9692 14.2441H41.0412L40.9852 17.1281C40.9666 17.4454 40.9572 18.2387 40.9572 19.5081C40.9572 20.8147 40.9666 22.0841 40.9852 23.3161C41.0039 24.5481 41.0132 25.6121 41.0132 26.5081L41.0412 27.6561V27.7961C41.0412 27.9641 41.0132 28.0667 40.9572 28.1041C40.9199 28.1414 40.8639 28.1601 40.7892 28.1601C40.7146 28.1601 40.6586 28.1601 40.6212 28.1601H38.7172C38.4932 28.1601 38.3626 28.1227 38.3252 28.0481C38.2879 27.9734 38.2692 27.8427 38.2692 27.6561C38.2692 27.4507 38.2692 27.3014 38.2692 27.2081L38.3812 23.7361C38.4932 20.7121 38.5492 18.7707 38.5492 17.9121C38.5492 17.4267 38.5306 16.6987 38.4932 15.7281L38.4652 14.2441C37.1212 14.2441 35.7586 14.2627 34.3772 14.3001L33.5092 14.3281C33.2666 14.3281 33.0986 14.2627 33.0052 14.1321C32.9119 14.0014 32.8932 13.8521 32.9492 13.6841L32.9772 12.9841C33.0146 11.9014 33.0332 10.9027 33.0332 9.98807C33.0332 9.54007 33.0239 9.26941 33.0052 9.17607V8.98007C33.0052 8.77474 33.0426 8.65341 33.1172 8.61607C33.2106 8.57874 33.3412 8.56007 33.5092 8.56007H36.2812L37.8492 8.53207C38.8199 8.49474 39.5012 8.47607 39.8932 8.47607L41.5732 8.50407C42.9172 8.54141 43.9719 8.56007 44.7372 8.56007C45.2972 8.56007 45.6612 8.55074 45.8292 8.53207C46.2399 8.51341 46.5292 8.57874 46.6972 8.72807C46.8652 8.85874 46.9492 9.00807 46.9492 9.17607Z" fill="white"/>
<path d="M31.0299 27.012C31.5339 27.516 31.7859 27.8614 31.7859 28.048C31.7859 28.0854 31.7393 28.1507 31.6459 28.244C31.4779 28.356 31.0579 28.412 30.3859 28.412C29.9006 28.412 29.5926 28.3747 29.4619 28.3C29.3313 28.244 29.2286 28.1414 29.1539 27.992C29.0979 27.8427 29.0513 27.7307 29.0139 27.656C28.9579 27.544 28.7246 27.2267 28.3139 26.704C27.9219 26.1627 27.6233 25.752 27.4179 25.472C26.4286 24.2027 25.5699 23.0547 24.8419 22.028C24.3939 21.3934 23.5633 20.3014 22.3499 18.752L21.9019 18.192L19.9699 15.784L19.8579 16.904C19.7833 17.464 19.7646 18.136 19.8019 18.92C19.8579 19.4427 19.8953 20.796 19.9139 22.98C19.9326 25.164 19.9419 26.76 19.9419 27.768C19.9419 28.0667 19.8299 28.2534 19.6059 28.328C19.3819 28.4214 19.1206 28.468 18.8219 28.468C18.6913 28.468 18.6073 28.412 18.5699 28.3C18.5326 28.188 18.5046 28.0667 18.4859 27.936C18.4859 27.8054 18.4859 27.7214 18.4859 27.684C18.4486 27.3854 18.4299 26.9467 18.4299 26.368C18.4299 25.9947 18.4393 25.7147 18.4579 25.528C18.4766 24.52 18.5046 22.7654 18.5419 20.264C18.5793 17.744 18.5979 15.4854 18.5979 13.488C18.5979 11.3414 18.5699 10.0907 18.5139 9.73603C18.4953 9.58669 18.4859 9.3907 18.4859 9.14803C18.4859 8.86803 18.5233 8.6907 18.5979 8.61603C18.6913 8.54136 18.8219 8.50403 18.9899 8.50403C19.3633 8.50403 19.7273 8.51336 20.0819 8.53203L23.1339 8.58803C24.2539 8.58803 25.4206 8.78403 26.6339 9.17603C27.8473 9.56803 28.4539 10.296 28.4539 11.36C28.4539 12.368 28.0806 13.152 27.3339 13.712C26.5873 14.272 25.7473 14.6547 24.8139 14.86C23.8993 15.0654 23.0966 15.168 22.4059 15.168C22.1633 15.168 22.0326 15.1587 22.0139 15.14C22.1259 15.252 22.8633 16.2414 24.2259 18.108C28.3326 23.6147 30.6006 26.5827 31.0299 27.012ZM19.8859 14.02C20.5019 14.02 20.9686 14.0107 21.2859 13.992C22.3686 13.9547 23.2086 13.88 23.8059 13.768C24.6646 13.6187 25.3086 13.4134 25.7379 13.152C26.1859 12.8907 26.4099 12.48 26.4099 11.92C26.4099 11.5467 26.2139 11.2294 25.8219 10.968C25.4299 10.688 24.9539 10.4827 24.3939 10.352C23.8526 10.2027 23.3766 10.128 22.9659 10.128C22.4993 10.1094 21.8459 10.1 21.0059 10.1H20.0539L19.8859 14.02Z" fill="white"/>
<path d="M16.2225 27.768C16.2785 27.8987 16.3065 27.992 16.3065 28.048C16.3065 28.1227 16.2038 28.16 15.9985 28.16H14.4305C14.3558 28.16 14.2905 28.1507 14.2345 28.132C14.1971 28.0947 14.1598 28.02 14.1225 27.908C14.0478 27.7027 13.9451 27.3667 13.8145 26.9C13.6465 26.4333 13.5345 26.0133 13.4785 25.64C13.4225 25.36 13.3291 25.024 13.1985 24.632C13.0865 24.24 12.9838 23.9413 12.8905 23.736C12.7225 23.3813 12.5731 22.98 12.4425 22.532L12.1905 21.72C12.0971 21.5147 12.0225 21.3933 11.9665 21.356C11.9291 21.3 11.8545 21.272 11.7425 21.272C11.3505 21.272 11.0611 21.2813 10.8745 21.3L9.67046 21.356C9.52113 21.3747 8.83046 21.384 7.59846 21.384H5.89046H5.83446C5.72246 21.384 5.63846 21.4867 5.58246 21.692L5.52646 21.972L5.41446 22.504C5.37713 22.5973 5.2558 23.1387 5.05046 24.128C4.99446 24.4453 4.90113 24.856 4.77046 25.36C4.73313 25.7333 4.64913 26.0413 4.51846 26.284C4.48113 26.34 4.43446 26.4707 4.37846 26.676C4.32246 26.8813 4.27579 27.0493 4.23846 27.18C4.18246 27.3293 4.11713 27.572 4.04246 27.908C4.02379 27.9267 4.00513 27.9733 3.98646 28.048C3.96779 28.104 3.93979 28.1413 3.90246 28.16C3.86513 28.16 3.80913 28.16 3.73446 28.16H3.17446C3.00646 28.16 2.95979 28.0387 3.03446 27.796C3.03446 27.74 3.04379 27.6933 3.06246 27.656C3.06246 27.6187 3.07179 27.572 3.09046 27.516C3.10913 27.46 3.13713 27.376 3.17446 27.264L3.42646 26.228C3.46379 26.116 3.52913 25.92 3.62246 25.64C3.71579 25.36 3.78113 25.0987 3.81846 24.856C3.91179 24.408 4.08913 23.7267 4.35046 22.812L4.57446 22.028C4.92913 20.8707 5.15313 20.0587 5.24646 19.592L5.63846 18.108C5.82513 17.492 5.93713 17.1 5.97446 16.932C6.10513 16.372 6.2918 15.672 6.53446 14.832L6.73046 14.048L6.89846 13.46C7.08513 12.8253 7.24379 12.368 7.37446 12.088C7.41179 11.976 7.54246 11.5933 7.76646 10.94C8.00913 10.268 8.1678 9.736 8.24246 9.344C8.37313 8.896 8.50379 8.56 8.63446 8.336C8.78379 8.112 8.97979 8 9.22246 8C9.31579 8 9.40913 8.084 9.50246 8.252C9.5958 8.42 9.68913 8.62533 9.78246 8.868C9.87579 9.11067 9.94113 9.288 9.97846 9.4C10.1278 9.75467 10.3891 10.6413 10.7625 12.06L10.9865 12.844C11.0051 12.9933 11.3131 13.908 11.9105 15.588L12.4425 17.128L12.9465 18.444C13.4691 19.9187 13.8051 20.8147 13.9545 21.132C14.6078 23.1107 14.9905 24.3053 15.1025 24.716C15.2331 25.2013 15.4385 25.808 15.7185 26.536C16.0171 27.264 16.1851 27.6747 16.2225 27.768ZM10.9865 19.452C11.2291 19.452 11.3505 19.3867 11.3505 19.256C11.3505 19.1627 11.2851 18.9573 11.1545 18.64C11.0425 18.36 10.8745 17.8373 10.6505 17.072C10.4825 16.456 10.3145 15.924 10.1465 15.476C9.95979 14.916 9.75446 14.2533 9.53046 13.488C9.32513 12.7227 9.20379 12.228 9.16646 12.004C8.88646 11.0147 8.6998 10.52 8.60646 10.52C8.55046 10.52 8.45713 10.772 8.32646 11.276L8.15846 11.892C8.02779 12.396 7.85979 13.0307 7.65446 13.796C7.44913 14.5427 7.26246 15.1773 7.09446 15.7C6.98246 16.1853 6.8238 16.8013 6.61846 17.548C6.4318 18.276 6.28246 18.78 6.17046 19.06C6.13313 19.172 6.11446 19.2373 6.11446 19.256C6.11446 19.3867 6.17046 19.4707 6.28246 19.508C6.41313 19.5453 6.53446 19.564 6.64646 19.564C6.77713 19.5453 6.86113 19.536 6.89846 19.536L8.52246 19.48C8.74646 19.4427 9.06379 19.424 9.47446 19.424L10.9865 19.452Z" fill="white"/>
<path d="M40.1446 32.9583C41.0557 32.9583 41.8038 33.1405 42.3888 33.5049C42.9834 33.8598 43.4437 34.2002 43.7698 34.5263C43.8082 34.5647 43.8274 34.6078 43.8274 34.6558C43.8274 34.6845 43.813 34.7229 43.7842 34.7708C43.765 34.8092 43.7506 34.838 43.741 34.8572C43.6931 34.9243 43.6116 35.0442 43.4965 35.2168C43.391 35.3798 43.3047 35.4997 43.2375 35.5764C43.2088 35.6148 43.1752 35.658 43.1368 35.7059C43.1081 35.7443 43.0793 35.773 43.0505 35.7922C43.0313 35.8114 42.9978 35.821 42.9498 35.821C42.9306 35.821 42.8827 35.7922 42.806 35.7347C42.7388 35.6676 42.6717 35.61 42.6046 35.5621C42.221 35.2264 41.8469 34.9387 41.4825 34.6989C41.1181 34.4592 40.768 34.3393 40.4323 34.3393C40.1638 34.3393 39.9432 34.4016 39.7706 34.5263C39.598 34.6414 39.5117 34.9099 39.5117 35.3319C39.5117 35.7443 39.6651 36.0656 39.972 36.2957C40.2789 36.5259 40.6865 36.7465 41.1948 36.9575C41.2427 36.9766 41.5209 37.0965 42.0291 37.3171C42.547 37.5377 43.0026 37.9597 43.3958 38.5831C43.7986 39.2064 44 39.9497 44 40.8128C44 41.7335 43.6547 42.424 42.9642 42.8844C42.2737 43.3447 41.3195 43.5749 40.1015 43.5749C38.7204 43.5749 37.8429 43.3111 37.4689 42.7837C37.0949 42.2466 36.8983 41.9685 36.8791 41.9493C36.8407 41.9013 36.8215 41.8534 36.8215 41.8054C36.8215 41.7767 36.8599 41.7143 36.9366 41.6184C37.0613 41.4458 37.2435 41.2396 37.4833 40.9998C37.5216 40.9615 37.56 40.9423 37.5984 40.9423C37.6463 40.9423 37.6991 40.9807 37.7566 41.0574C37.8141 41.1245 37.8621 41.1773 37.9005 41.2156C38.4663 41.7815 39.1089 42.0644 39.8281 42.0644C40.1926 42.0644 40.5091 41.9972 40.7776 41.863C41.0461 41.7191 41.1804 41.4554 41.1804 41.0718C41.1804 40.41 40.6577 39.7051 39.6124 38.9571C39.4397 38.842 39.2767 38.7461 39.1232 38.6694C38.7204 38.4488 38.3752 38.233 38.0875 38.022C37.7998 37.811 37.5456 37.5329 37.325 37.1876C37.1045 36.8424 36.9942 36.4396 36.9942 35.9792C36.9942 35.4038 37.1716 34.8859 37.5264 34.4256C37.8909 33.9652 38.3224 33.6056 38.8211 33.3467C39.3294 33.0877 39.7706 32.9583 40.1446 32.9583Z" fill="white"/>
<path d="M35.4349 34.6845C35.4349 34.8763 35.4205 35.0537 35.3917 35.2168C35.3821 35.3606 35.315 35.4326 35.1903 35.4326C35.152 35.4326 35.0992 35.423 35.0321 35.4038C34.9649 35.3846 34.9122 35.3702 34.8738 35.3606C34.73 35.3319 34.3128 35.3175 33.6223 35.3175L33.0756 35.3031C32.951 35.2935 32.7687 35.2887 32.529 35.2887C32.3563 35.2887 32.2269 35.2935 32.1406 35.3031C31.8528 35.3223 31.5987 35.3319 31.3781 35.3319L30.6157 35.3175C30.539 35.3175 30.4958 35.3367 30.4862 35.375C30.4766 35.4038 30.4718 35.4805 30.4718 35.6052C30.4718 35.7778 30.467 35.9265 30.4574 36.0512C30.4383 36.4348 30.4287 36.7465 30.4287 36.9862V37.835C30.4287 38.0364 30.4335 38.1898 30.443 38.2953C30.5198 38.3049 30.6492 38.3097 30.8315 38.3097C30.9945 38.3193 31.3302 38.3241 31.8385 38.3241C32.0494 38.3241 32.3563 38.3145 32.7591 38.2953C33.066 38.2761 33.2674 38.2665 33.3633 38.2665C33.4976 38.2665 33.6319 38.2761 33.7661 38.2953C33.9004 38.3049 34.0011 38.3097 34.0682 38.3097C34.1929 38.3097 34.2553 38.3672 34.2553 38.4823C34.2553 38.5207 34.2505 38.5782 34.2409 38.655C34.2313 38.7221 34.2265 38.8132 34.2265 38.9283L34.2409 39.6907C34.2409 39.777 34.2313 39.8394 34.2121 39.8777C34.1929 39.9065 34.1593 39.9209 34.1114 39.9209C34.0826 39.9209 34.0395 39.9161 33.9819 39.9065C33.934 39.8873 33.8908 39.8777 33.8525 39.8777C33.7661 39.8777 33.6031 39.8729 33.3633 39.8634C33.1332 39.8538 32.8167 39.849 32.4139 39.849C31.9823 39.849 31.6083 39.8682 31.2918 39.9065C30.9753 39.9449 30.7835 39.9641 30.7164 39.9641C30.6109 39.9641 30.5485 39.9593 30.5294 39.9497C30.4814 39.9497 30.4526 39.9449 30.443 39.9353V41.3739C30.5102 41.3739 30.5629 41.3691 30.6013 41.3595L31.0041 41.3451L32.7016 41.3307C33.0469 41.3307 33.3202 41.3355 33.5216 41.3451L34.5142 41.3595L35.1184 41.3451C35.2335 41.3451 35.3102 41.3739 35.3486 41.4314C35.3869 41.4793 35.4061 41.5513 35.4061 41.6472L35.3917 41.9349L35.3773 42.9419C35.3773 43.0953 35.3438 43.1912 35.2766 43.2296C35.2095 43.2584 35.1136 43.2728 34.9889 43.2728C34.8642 43.2632 34.7635 43.2584 34.6868 43.2584C34.2744 43.2584 33.9196 43.2536 33.6223 43.244L32.1549 43.2296C32.0399 43.2296 31.4644 43.244 30.4287 43.2728L29.882 43.2871L29.7957 43.3015C29.7382 43.3015 29.7046 43.2871 29.695 43.2584C29.6854 43.22 29.6806 43.1529 29.6806 43.057C29.671 42.9515 29.6662 42.7741 29.6662 42.5247C29.6662 42.448 29.6614 42.3665 29.6518 42.2801C29.6422 42.1842 29.6375 42.0596 29.6375 41.9061V39.9353C29.6375 39.7435 29.6422 39.5565 29.6518 39.3742C29.671 39.192 29.6806 39.0578 29.6806 38.9714C29.719 38.5303 29.7382 38.1083 29.7382 37.7055C29.7382 37.2068 29.7238 36.8136 29.695 36.5259C29.6758 36.1998 29.6662 35.9025 29.6662 35.634C29.6662 35.0298 29.6806 34.3249 29.7094 33.5193C29.7094 33.3946 29.7334 33.3131 29.7813 33.2747C29.8293 33.2268 29.8964 33.2028 29.9827 33.2028L30.1985 33.2172C30.2848 33.2172 30.4239 33.2268 30.6157 33.2459C30.8075 33.2555 31.0425 33.2603 31.3206 33.2603C31.6371 33.2603 32.0111 33.2364 32.4427 33.1884C32.9605 33.15 33.3058 33.1309 33.4784 33.1309C33.8716 33.1309 34.2313 33.1452 34.5574 33.174L35.0752 33.1884C35.1999 33.1884 35.2814 33.2172 35.3198 33.2747C35.3582 33.3323 35.3773 33.4378 35.3773 33.5912C35.3773 33.6775 35.3869 33.8262 35.4061 34.0372C35.4253 34.2865 35.4349 34.5023 35.4349 34.6845Z" fill="white"/>
<path d="M25.8299 33.2315C26.4053 33.6152 26.8657 34.133 27.2109 34.7852C27.5658 35.4373 27.8103 36.0751 27.9446 36.6985C28.0884 37.3123 28.1604 37.7966 28.1604 38.1514C28.1604 38.7461 28.0645 39.4366 27.8727 40.223C27.6904 41.0094 27.2924 41.7431 26.6786 42.424C26.0649 43.0953 25.1777 43.431 24.0173 43.431C22.4253 43.431 21.2936 42.5055 20.6223 40.6546C20.325 39.8202 20.1571 38.8899 20.1188 37.8637C20.1188 37.0198 20.2962 36.219 20.651 35.4613C21.0059 34.6941 21.471 34.0803 22.0465 33.62C22.6315 33.1596 23.2309 32.9294 23.8447 32.9294C24.4009 32.9294 24.8133 32.9438 25.0818 32.9726C25.36 33.0014 25.6093 33.0877 25.8299 33.2315ZM23.9454 42.6254C24.962 42.6254 25.7196 42.2034 26.2183 41.3594C26.717 40.5059 26.9664 39.4366 26.9664 38.1514C26.9664 37.365 26.8465 36.6409 26.6067 35.9792C26.3765 35.3079 26.0457 34.7756 25.6141 34.3824C25.1921 33.9796 24.703 33.7782 24.1468 33.7782C24.0988 33.7782 23.9693 33.7782 23.7583 33.7782C23.557 33.7782 23.3795 33.8118 23.2261 33.8789C23.0726 33.946 22.9336 34.0467 22.8089 34.181C22.4924 34.4975 22.2239 34.79 22.0033 35.0585C21.7923 35.3175 21.5765 35.7059 21.3559 36.2238C21.145 36.7416 21.0395 37.3411 21.0395 38.022C21.0395 38.8276 21.1354 39.5804 21.3272 40.2805C21.5286 40.971 21.8451 41.5369 22.2766 41.978C22.7082 42.4096 23.2644 42.6254 23.9454 42.6254Z" fill="white"/>
<path d="M14.6136 37.1014C14.815 37.1014 15.002 37.0918 15.1746 37.0726C15.2322 37.063 15.3233 37.0582 15.448 37.0582C15.5822 37.0582 15.6829 37.063 15.75 37.0726L16.0809 37.1014L16.1241 36.6698L16.1672 35.9793L16.196 34.5695L16.2248 33.4618C16.2344 33.3179 16.2535 33.222 16.2823 33.1741C16.3111 33.1261 16.3782 33.0974 16.4837 33.0878C16.5796 33.0878 16.8482 33.059 17.2893 33.0014C17.366 32.9919 17.5051 32.9871 17.7065 32.9871C18.0134 32.9871 18.2675 33.0014 18.4689 33.0302C18.5744 33.0494 18.6368 33.0734 18.656 33.1021C18.6847 33.1213 18.6991 33.1597 18.6991 33.2172C18.7087 33.2748 18.7183 33.3275 18.7279 33.3755C18.7279 33.5289 18.7135 33.7879 18.6847 34.1523C18.6464 34.8236 18.6272 35.284 18.6272 35.5333C18.6272 35.658 18.5984 36.056 18.5409 36.7273C18.4833 37.4562 18.4546 37.9309 18.4546 38.1515L18.4833 40.9999C18.4833 42.074 18.5025 42.731 18.5409 42.9707V42.9995C18.5409 43.105 18.5217 43.1721 18.4833 43.2009C18.445 43.2201 18.4018 43.2297 18.3539 43.2297C18.3059 43.2201 18.2723 43.2153 18.2532 43.2153C18.1764 43.1961 18.0805 43.1865 17.9654 43.1865C17.9271 43.1865 17.8024 43.1961 17.5914 43.2153C17.3229 43.244 16.8913 43.2584 16.2967 43.2584H16.2679C16.1337 43.2584 16.0665 43.2153 16.0665 43.129C16.0665 42.9467 16.0617 42.5871 16.0521 42.05C16.0521 41.513 16.0378 41.1198 16.009 40.8704C15.9898 40.506 15.9802 40.1511 15.9802 39.8059C15.9706 39.662 15.9658 39.4414 15.9658 39.1441H15.5486L14.9301 39.1585L14.6711 39.1729L14.3834 39.1585C14.2396 39.1585 14.1245 39.1537 14.0382 39.1441L13.995 40.0504C13.9662 40.3861 13.9518 40.8225 13.9518 41.3595V42.0932C13.9518 42.6111 13.9614 42.9228 13.9806 43.0283C13.9998 43.1433 13.9806 43.2153 13.9231 43.244C13.8751 43.2632 13.8128 43.2728 13.7361 43.2728C13.6689 43.2728 13.621 43.2728 13.5922 43.2728C13.5155 43.2632 13.386 43.2536 13.2038 43.244C13.0216 43.2249 12.8729 43.2153 12.7578 43.2153L12.3406 43.244C12.2735 43.2536 12.0242 43.2728 11.5926 43.3016C11.372 43.3304 11.2617 43.1961 11.2617 42.8988L11.2761 42.3377L11.3049 41.302C11.3049 41.091 11.3097 40.8944 11.3193 40.7122L11.3336 39.0434C11.3336 38.6598 11.3289 38.4153 11.3193 38.3098C11.2905 38.0892 11.2761 37.8015 11.2761 37.4466L11.2905 36.5691C11.3001 36.4252 11.3049 36.2382 11.3049 36.0081C11.3049 35.7395 11.3336 35.1833 11.3912 34.3393L11.4343 33.3467C11.4343 33.27 11.4487 33.2172 11.4775 33.1885C11.5063 33.1597 11.5494 33.1453 11.607 33.1453L11.794 33.1597C11.9187 33.1789 12.0817 33.1933 12.2831 33.2028C12.4845 33.2124 12.6811 33.2172 12.8729 33.2172L13.5347 33.2028C13.6401 33.1933 13.76 33.1885 13.8943 33.1885H13.9087C13.9854 33.1885 14.0238 33.2412 14.0238 33.3467C14.0334 33.3659 14.0382 33.5577 14.0382 33.9221C14.0477 34.277 14.0525 34.699 14.0525 35.1881C14.0525 35.495 14.0429 35.9074 14.0238 36.4252L13.995 37.087L14.6136 37.1014Z" fill="white"/>
<path d="M5.93649 32.9583C6.84759 32.9583 7.59564 33.1405 8.18066 33.5049C8.77527 33.8598 9.23561 34.2002 9.56168 34.5263C9.60005 34.5647 9.61923 34.6078 9.61923 34.6558C9.61923 34.6845 9.60484 34.7229 9.57607 34.7708C9.55689 34.8092 9.5425 34.838 9.53291 34.8572C9.48496 34.9243 9.40344 35.0442 9.28836 35.2168C9.18286 35.3798 9.09655 35.4997 9.02941 35.5764C9.00064 35.6148 8.96708 35.658 8.92871 35.7059C8.89994 35.7443 8.87117 35.773 8.8424 35.7922C8.82322 35.8114 8.78965 35.821 8.7417 35.821C8.72252 35.821 8.67457 35.7922 8.59784 35.7347C8.53071 35.6676 8.46358 35.61 8.39644 35.5621C8.01283 35.2264 7.6388 34.9387 7.27436 34.6989C6.90992 34.4592 6.55987 34.3393 6.22421 34.3393C5.95568 34.3393 5.73509 34.4016 5.56247 34.5263C5.38984 34.6414 5.30352 34.9099 5.30352 35.3319C5.30352 35.7443 5.45697 36.0656 5.76387 36.2957C6.07076 36.5259 6.47835 36.7465 6.98665 36.9575C7.0346 36.9766 7.31272 37.0965 7.82102 37.3171C8.3389 37.5377 8.79445 37.9597 9.18766 38.5831C9.59046 39.2064 9.79185 39.9497 9.79185 40.8128C9.79185 41.7335 9.4466 42.424 8.75609 42.8844C8.06557 43.3447 7.11132 43.5749 5.89334 43.5749C4.51231 43.5749 3.63479 43.3111 3.26076 42.7837C2.88673 42.2466 2.69013 41.9685 2.67095 41.9493C2.63258 41.9013 2.6134 41.8534 2.6134 41.8054C2.6134 41.7767 2.65177 41.7143 2.72849 41.6184C2.85316 41.4458 3.03538 41.2396 3.27514 40.9998C3.31351 40.9615 3.35187 40.9423 3.39023 40.9423C3.43818 40.9423 3.49093 40.9807 3.54847 41.0574C3.60601 41.1245 3.65397 41.1773 3.69233 41.2156C4.25817 41.7815 4.90073 42.0644 5.62001 42.0644C5.98445 42.0644 6.30093 41.9972 6.56946 41.863C6.838 41.7191 6.97226 41.4554 6.97226 41.0718C6.97226 40.41 6.44958 39.7051 5.40422 38.9571C5.2316 38.842 5.06856 38.7461 4.91511 38.6694C4.51231 38.4488 4.16706 38.233 3.87934 38.022C3.59163 37.811 3.33748 37.5329 3.1169 37.1876C2.89632 36.8424 2.78603 36.4396 2.78603 35.9792C2.78603 35.4038 2.96345 34.8859 3.3183 34.4256C3.68274 33.9652 4.11431 33.6056 4.61301 33.3467C5.12131 33.0877 5.56247 32.9583 5.93649 32.9583Z" fill="white"/>
</g>
<defs>
<clipPath id="clip0_285_4315">
<rect width="48" height="48" rx="4" fill="white"/>
</clipPath>
</defs>
</svg>
